<mxfile host="app.diagrams.net" agent="Mozilla/5.0 (Windows NT 10.0; Win64; x64) AppleWebKit/537.36 (KHTML, like Gecko) Chrome/127.0.0.0 Safari/537.36" version="24.7.7">
  <diagram name="Page-1" id="TgP26u_tu5ESTAodG6gw">
    <mxGraphModel dx="710" dy="697" grid="1" gridSize="10" guides="1" tooltips="1" connect="1" arrows="1" fold="1" page="1" pageScale="1" pageWidth="850" pageHeight="1100" math="0" shadow="0">
      <root>
        <mxCell id="0" />
        <mxCell id="1" parent="0" />
        <mxCell id="KzIynaVG9g5SBnPoMizT-27" value="RoadSegment" style="swimlane;fontStyle=1;align=center;verticalAlign=top;childLayout=stackLayout;horizontal=1;startSize=26;horizontalStack=0;resizeParent=1;resizeParentMax=0;resizeLast=0;collapsible=1;marginBottom=0;whiteSpace=wrap;html=1;" parent="1" vertex="1">
          <mxGeometry x="410" y="390" width="230" height="240" as="geometry" />
        </mxCell>
        <mxCell id="KzIynaVG9g5SBnPoMizT-28" value="- Name : String&lt;div&gt;- Length : Integer&lt;/div&gt;&lt;div&gt;- Lanes : Integer&lt;/div&gt;&lt;div&gt;- start_intersection : String&lt;/div&gt;&lt;div&gt;- end_intersection : String&lt;/div&gt;&lt;div&gt;- POIs_loc : map&amp;lt;string, pari&amp;lt;int,int&amp;gt;&amp;gt;&lt;/div&gt;" style="text;strokeColor=none;fillColor=none;align=left;verticalAlign=top;spacingLeft=4;spacingRight=4;overflow=hidden;rotatable=0;points=[[0,0.5],[1,0.5]];portConstraint=eastwest;whiteSpace=wrap;html=1;" parent="KzIynaVG9g5SBnPoMizT-27" vertex="1">
          <mxGeometry y="26" width="230" height="104" as="geometry" />
        </mxCell>
        <mxCell id="KzIynaVG9g5SBnPoMizT-29" value="" style="line;strokeWidth=1;fillColor=none;align=left;verticalAlign=middle;spacingTop=-1;spacingLeft=3;spacingRight=3;rotatable=0;labelPosition=right;points=[];portConstraint=eastwest;strokeColor=inherit;" parent="KzIynaVG9g5SBnPoMizT-27" vertex="1">
          <mxGeometry y="130" width="230" height="8" as="geometry" />
        </mxCell>
        <mxCell id="KzIynaVG9g5SBnPoMizT-30" value="+ getLength : int&lt;div&gt;+ getPOIStart : int&lt;/div&gt;&lt;div&gt;+ getPOIEnd : int&lt;/div&gt;&lt;div&gt;+ getStartIntersection : String&lt;/div&gt;&lt;div&gt;+ getEndIntersection : String&lt;/div&gt;&lt;div&gt;+ getName : String&lt;/div&gt;" style="text;strokeColor=none;fillColor=none;align=left;verticalAlign=top;spacingLeft=4;spacingRight=4;overflow=hidden;rotatable=0;points=[[0,0.5],[1,0.5]];portConstraint=eastwest;whiteSpace=wrap;html=1;" parent="KzIynaVG9g5SBnPoMizT-27" vertex="1">
          <mxGeometry y="138" width="230" height="102" as="geometry" />
        </mxCell>
        <mxCell id="KzIynaVG9g5SBnPoMizT-31" value="Intersection" style="swimlane;fontStyle=1;align=center;verticalAlign=top;childLayout=stackLayout;horizontal=1;startSize=26;horizontalStack=0;resizeParent=1;resizeParentMax=0;resizeLast=0;collapsible=1;marginBottom=0;whiteSpace=wrap;html=1;" parent="1" vertex="1">
          <mxGeometry x="380" y="164" width="310" height="118" as="geometry" />
        </mxCell>
        <mxCell id="KzIynaVG9g5SBnPoMizT-32" value="- connected_segments : set&amp;lt;string&amp;gt;&lt;div&gt;- name : string&lt;/div&gt;" style="text;strokeColor=none;fillColor=none;align=left;verticalAlign=top;spacingLeft=4;spacingRight=4;overflow=hidden;rotatable=0;points=[[0,0.5],[1,0.5]];portConstraint=eastwest;whiteSpace=wrap;html=1;" parent="KzIynaVG9g5SBnPoMizT-31" vertex="1">
          <mxGeometry y="26" width="310" height="44" as="geometry" />
        </mxCell>
        <mxCell id="KzIynaVG9g5SBnPoMizT-33" value="" style="line;strokeWidth=1;fillColor=none;align=left;verticalAlign=middle;spacingTop=-1;spacingLeft=3;spacingRight=3;rotatable=0;labelPosition=right;points=[];portConstraint=eastwest;strokeColor=inherit;" parent="KzIynaVG9g5SBnPoMizT-31" vertex="1">
          <mxGeometry y="70" width="310" height="8" as="geometry" />
        </mxCell>
        <mxCell id="KzIynaVG9g5SBnPoMizT-34" value="+ getName : string&lt;div&gt;+ getConnection: set&amp;lt;string&amp;gt;&lt;/div&gt;" style="text;strokeColor=none;fillColor=none;align=left;verticalAlign=top;spacingLeft=4;spacingRight=4;overflow=hidden;rotatable=0;points=[[0,0.5],[1,0.5]];portConstraint=eastwest;whiteSpace=wrap;html=1;" parent="KzIynaVG9g5SBnPoMizT-31" vertex="1">
          <mxGeometry y="78" width="310" height="40" as="geometry" />
        </mxCell>
        <mxCell id="KzIynaVG9g5SBnPoMizT-35" value="RoadNetwork" style="swimlane;fontStyle=1;align=center;verticalAlign=top;childLayout=stackLayout;horizontal=1;startSize=26;horizontalStack=0;resizeParent=1;resizeParentMax=0;resizeLast=0;collapsible=1;marginBottom=0;whiteSpace=wrap;html=1;" parent="1" vertex="1">
          <mxGeometry x="10" y="250" width="310" height="148" as="geometry" />
        </mxCell>
        <mxCell id="KzIynaVG9g5SBnPoMizT-36" value="- road_segments : map&amp;lt;String, *RoadSegment&amp;gt;&lt;div&gt;- POIs : map&amp;lt;String, *POI&amp;gt;&lt;/div&gt;&lt;div&gt;- intersections : map&amp;lt;String, *Intersections&amp;gt;&lt;/div&gt;" style="text;strokeColor=none;fillColor=none;align=left;verticalAlign=top;spacingLeft=4;spacingRight=4;overflow=hidden;rotatable=0;points=[[0,0.5],[1,0.5]];portConstraint=eastwest;whiteSpace=wrap;html=1;" parent="KzIynaVG9g5SBnPoMizT-35" vertex="1">
          <mxGeometry y="26" width="310" height="54" as="geometry" />
        </mxCell>
        <mxCell id="KzIynaVG9g5SBnPoMizT-37" value="" style="line;strokeWidth=1;fillColor=none;align=left;verticalAlign=middle;spacingTop=-1;spacingLeft=3;spacingRight=3;rotatable=0;labelPosition=right;points=[];portConstraint=eastwest;strokeColor=inherit;" parent="KzIynaVG9g5SBnPoMizT-35" vertex="1">
          <mxGeometry y="80" width="310" height="8" as="geometry" />
        </mxCell>
        <mxCell id="KzIynaVG9g5SBnPoMizT-38" value="+ addRoadSegments : void&lt;div&gt;+ addPOI : void&lt;/div&gt;&lt;div&gt;+ shortestPath : pair&amp;lt;int, vector&amp;lt;string&amp;gt;&amp;gt;&lt;/div&gt;" style="text;strokeColor=none;fillColor=none;align=left;verticalAlign=top;spacingLeft=4;spacingRight=4;overflow=hidden;rotatable=0;points=[[0,0.5],[1,0.5]];portConstraint=eastwest;whiteSpace=wrap;html=1;" parent="KzIynaVG9g5SBnPoMizT-35" vertex="1">
          <mxGeometry y="88" width="310" height="60" as="geometry" />
        </mxCell>
        <mxCell id="KzIynaVG9g5SBnPoMizT-39" style="edgeStyle=orthogonalEdgeStyle;rounded=0;orthogonalLoop=1;jettySize=auto;html=1;exitX=1;exitY=0.5;exitDx=0;exitDy=0;" parent="1" source="KzIynaVG9g5SBnPoMizT-38" target="KzIynaVG9g5SBnPoMizT-28" edge="1">
          <mxGeometry relative="1" as="geometry" />
        </mxCell>
        <mxCell id="KzIynaVG9g5SBnPoMizT-44" value="POI" style="swimlane;fontStyle=1;align=center;verticalAlign=top;childLayout=stackLayout;horizontal=1;startSize=26;horizontalStack=0;resizeParent=1;resizeParentMax=0;resizeLast=0;collapsible=1;marginBottom=0;whiteSpace=wrap;html=1;" parent="1" vertex="1">
          <mxGeometry x="80" y="590" width="200" height="120" as="geometry" />
        </mxCell>
        <mxCell id="KzIynaVG9g5SBnPoMizT-45" value="- Name : String&lt;div&gt;- Road : String&lt;/div&gt;" style="text;strokeColor=none;fillColor=none;align=left;verticalAlign=top;spacingLeft=4;spacingRight=4;overflow=hidden;rotatable=0;points=[[0,0.5],[1,0.5]];portConstraint=eastwest;whiteSpace=wrap;html=1;" parent="KzIynaVG9g5SBnPoMizT-44" vertex="1">
          <mxGeometry y="26" width="200" height="44" as="geometry" />
        </mxCell>
        <mxCell id="KzIynaVG9g5SBnPoMizT-46" value="" style="line;strokeWidth=1;fillColor=none;align=left;verticalAlign=middle;spacingTop=-1;spacingLeft=3;spacingRight=3;rotatable=0;labelPosition=right;points=[];portConstraint=eastwest;strokeColor=inherit;" parent="KzIynaVG9g5SBnPoMizT-44" vertex="1">
          <mxGeometry y="70" width="200" height="8" as="geometry" />
        </mxCell>
        <mxCell id="KzIynaVG9g5SBnPoMizT-47" value="+ getName : String&lt;div&gt;+ getRoad : String&lt;/div&gt;&lt;div&gt;&lt;br&gt;&lt;/div&gt;" style="text;strokeColor=none;fillColor=none;align=left;verticalAlign=top;spacingLeft=4;spacingRight=4;overflow=hidden;rotatable=0;points=[[0,0.5],[1,0.5]];portConstraint=eastwest;whiteSpace=wrap;html=1;" parent="KzIynaVG9g5SBnPoMizT-44" vertex="1">
          <mxGeometry y="78" width="200" height="42" as="geometry" />
        </mxCell>
        <mxCell id="ziEI6Esn6FzP0HRUme2r-1" value="" style="endArrow=none;dashed=1;html=1;dashPattern=1 3;strokeWidth=2;rounded=0;entryX=0;entryY=0.5;entryDx=0;entryDy=0;exitX=1;exitY=0.5;exitDx=0;exitDy=0;" edge="1" parent="1" source="KzIynaVG9g5SBnPoMizT-45" target="KzIynaVG9g5SBnPoMizT-30">
          <mxGeometry width="50" height="50" relative="1" as="geometry">
            <mxPoint x="330" y="650" as="sourcePoint" />
            <mxPoint x="380" y="600" as="targetPoint" />
          </mxGeometry>
        </mxCell>
        <mxCell id="ziEI6Esn6FzP0HRUme2r-2" value="" style="endArrow=classic;html=1;rounded=0;exitX=0.462;exitY=1;exitDx=0;exitDy=0;exitPerimeter=0;entryX=0.5;entryY=0;entryDx=0;entryDy=0;" edge="1" parent="1" source="KzIynaVG9g5SBnPoMizT-38" target="KzIynaVG9g5SBnPoMizT-44">
          <mxGeometry width="50" height="50" relative="1" as="geometry">
            <mxPoint x="330" y="500" as="sourcePoint" />
            <mxPoint x="380" y="450" as="targetPoint" />
          </mxGeometry>
        </mxCell>
        <mxCell id="ziEI6Esn6FzP0HRUme2r-3" value="" style="endArrow=classic;html=1;rounded=0;exitX=1;exitY=0.5;exitDx=0;exitDy=0;entryX=0;entryY=0.5;entryDx=0;entryDy=0;" edge="1" parent="1" source="KzIynaVG9g5SBnPoMizT-36" target="KzIynaVG9g5SBnPoMizT-32">
          <mxGeometry width="50" height="50" relative="1" as="geometry">
            <mxPoint x="330" y="500" as="sourcePoint" />
            <mxPoint x="380" y="450" as="targetPoint" />
          </mxGeometry>
        </mxCell>
        <mxCell id="ziEI6Esn6FzP0HRUme2r-4" value="" style="endArrow=none;dashed=1;html=1;rounded=0;exitX=0.495;exitY=0.983;exitDx=0;exitDy=0;exitPerimeter=0;entryX=0.5;entryY=0;entryDx=0;entryDy=0;" edge="1" parent="1" source="KzIynaVG9g5SBnPoMizT-34" target="KzIynaVG9g5SBnPoMizT-27">
          <mxGeometry width="50" height="50" relative="1" as="geometry">
            <mxPoint x="330" y="500" as="sourcePoint" />
            <mxPoint x="380" y="450" as="targetPoint" />
          </mxGeometry>
        </mxCell>
      </root>
    </mxGraphModel>
  </diagram>
</mxfile>
